<svg width="486" height="612" viewBox="0 0 486 612" fill="none" xmlns="http://www.w3.org/2000/svg">
<path opacity="0.4" d="M26.1736 584.825L0 569.868L39.1623 547.481L65.3236 562.426L26.1736 584.825Z" fill="#D6D8E5"/>
<path d="M26.7126 554.678L5.03613 542.181L26.7126 529.684L48.3769 542.181L26.7126 554.678Z" fill="#D6D8E5"/>
<path d="M26.7126 579.672L5.03613 567.175V542.181L26.7126 554.678V579.672Z" fill="#B1B6C4"/>
<path d="M48.3894 567.175L26.7129 579.672V554.678L48.3894 542.181V567.175Z" fill="#C4C7D6"/>
<path d="M55.8393 559.366C57.7137 559.887 59.7186 559.645 61.4146 558.693C62.7625 558.693 70.0656 555.621 71.0582 558.24C71.9282 560.529 68.7668 562.659 67.0758 563.063C63.3997 563.956 60.6549 565.792 59.1722 566.11C58.6075 566.313 58.0019 566.374 57.4081 566.288C56.8143 566.203 56.2505 565.974 55.7657 565.621C54.7119 564.519 54.81 560.676 55.8393 559.366Z" fill="#574735"/>
<path d="M59.1723 565.413C60.655 565.094 63.3876 563.258 67.0759 562.365C68.485 562.022 70.9235 560.48 71.1686 558.632C71.4994 560.749 68.6443 562.622 67.0759 563.001C63.3998 563.895 60.655 565.731 59.1723 566.049C58.6076 566.251 58.002 566.313 57.4082 566.227C56.8144 566.142 56.2506 565.913 55.7659 565.56C55.5323 565.312 55.3675 565.009 55.288 564.678C55.8332 565.095 56.4684 565.378 57.1429 565.506C57.8174 565.633 58.5124 565.601 59.1723 565.413Z" fill="#F8982C"/>
<path d="M42.679 552.304C44.5534 552.825 46.5583 552.583 48.2544 551.63C49.6022 551.63 56.8318 548.558 57.8856 551.178C58.7556 553.466 55.5942 555.596 53.9155 556C50.2394 556.894 47.4946 558.73 46.012 559.048C45.4473 559.25 44.8416 559.311 44.2478 559.226C43.654 559.141 43.0902 558.911 42.6055 558.558C41.5517 557.518 41.6619 553.675 42.679 552.304Z" fill="#574735"/>
<path d="M46.0119 558.411C47.4946 558.093 50.2272 556.257 53.9155 555.364C55.3246 555.021 57.7631 553.479 58.0082 551.63C58.339 553.748 55.4839 555.621 53.9155 556C50.2394 556.894 47.4946 558.73 46.0119 559.048C45.4472 559.25 44.8416 559.311 44.2478 559.226C43.654 559.141 43.0902 558.911 42.6055 558.558C42.3746 558.314 42.2101 558.015 42.1276 557.689C42.6747 558.102 43.3104 558.382 43.9845 558.508C44.6587 558.633 45.3527 558.6 46.0119 558.411Z" fill="#F8982C"/>
<path d="M22.1788 543.234C27.8767 545.682 33.207 546.122 37.6306 543.772L42.1644 541.153C42.4339 547.004 42.6913 552.622 42.6913 552.622C42.6913 552.622 46.1713 555.253 48.818 552.903C48.818 552.903 49.3817 544.703 49.9576 536.624L54.712 533.882C54.5974 534.314 54.5357 534.758 54.5282 535.204C54.5282 536.734 55.631 559.537 55.631 559.537C55.631 559.537 59.1355 561.618 61.8436 559.28C61.8436 559.28 63.6693 532.854 64.086 528.68C64.5516 523.931 59.2826 521.593 55.9374 522.805L50.8399 524.702L51.0849 521.765C51.5628 517.016 46.2816 514.678 42.9486 515.89C39.9097 517.003 19.3728 524.69 19.3728 524.69C19.5006 526.665 19.7419 528.631 20.0957 530.578L11.9839 529.892C11.555 537.469 16.4932 540.737 22.1788 543.234ZM36.3439 530.1L41.7723 526.979C41.6818 527.361 41.6244 527.75 41.6007 528.142L36.3439 530.1Z" fill="#F8982C"/>
<path d="M7.59717 506.734C7.59717 506.734 8.25886 516.808 9.58224 518.264C10.9056 519.721 15.3904 520.712 15.3904 520.712L18.8337 526.318C18.8337 526.318 15.6845 508.35 14.9983 507.958C14.3121 507.566 7.59717 506.734 7.59717 506.734Z" fill="#FFCEA9"/>
<path d="M14.2263 495.535C13.3913 495.145 12.4427 495.073 11.5585 495.332C10.6742 495.591 9.91491 496.164 9.42288 496.942C8.19752 499.035 6.83738 506.245 6.71484 507.469C7.22415 508.156 7.89883 508.703 8.67637 509.06C9.45391 509.418 10.3092 509.573 11.1629 509.513L14.2263 495.535Z" fill="#EDEDED"/>
<path d="M15.4394 495.718C17.1794 495.804 18.4782 496.244 18.6988 495.718C18.8856 494.821 19.0166 493.914 19.0909 493.001C18.8949 492.487 18.7233 491.948 18.7233 491.948C16.5299 490.602 15.8437 488.276 15.5496 485.486C15.0595 480.773 17.6082 476.66 22.3136 476.171C26.7494 475.706 30.0088 478.815 30.8911 483.086C31.3567 485.192 32.288 489.206 31.0259 492.646C30.3274 494.58 29.4207 496.122 28.5752 496.416C27.6973 496.397 26.8215 496.324 25.9529 496.196C25.9529 496.196 25.7201 497.505 25.5608 498.338C25.4015 499.17 25.4505 499.623 27.1292 500.651C28.808 501.679 24.605 503.797 21.8602 503.588C19.1154 503.38 16.0275 501.728 15.182 499.916C14.165 497.934 14.2385 495.608 15.4394 495.718Z" fill="#FFCEA9"/>
<path d="M59.6256 526.502C59.6246 526.75 59.5585 526.994 59.4338 527.208C59.3091 527.423 59.1302 527.602 58.9149 527.726L45.6198 535.388C45.4042 535.514 45.1589 535.58 44.9091 535.58C44.6594 535.58 44.4141 535.514 44.1984 535.388L25.573 524.641C25.3561 524.519 25.1758 524.341 25.0508 524.126C24.9259 523.911 24.8608 523.666 24.8623 523.417V523.319L59.6256 526.502Z" fill="#E5E5E5"/>
<path d="M58.9149 527.726L45.6198 535.388C45.4057 535.518 45.1596 535.586 44.9091 535.584V526.502H59.6133C59.6136 526.749 59.5493 526.992 59.4268 527.206C59.3043 527.421 59.1278 527.6 58.9149 527.726Z" fill="#E5E5E5"/>
<path d="M45.4115 534.69C45.2615 534.78 45.09 534.827 44.9152 534.827C44.7405 534.827 44.569 534.78 44.419 534.69L25.0461 523.527C24.801 523.381 24.801 523.148 25.0461 523.013L39.3092 514.776L59.6256 526.502L45.4115 534.69Z" fill="#F4F4F4"/>
<path d="M32.9987 526.502L33.0967 526.551L39.3092 530.137L42.7157 528.166L42.8137 528.117L36.5032 524.482L32.9987 526.502Z" fill="#BFBFBF"/>
<path d="M33.0967 526.551L39.3092 530.137L42.7157 528.166L36.5032 524.592L33.0967 526.551Z" fill="#E5E5E5"/>
<path d="M54.3567 527.077L55.2512 527.591C55.2944 527.615 55.3429 527.627 55.3921 527.627C55.4413 527.627 55.4898 527.615 55.533 527.591L56.3908 527.102C56.4765 527.102 56.4888 526.979 56.3908 526.942L55.4963 526.416C55.4522 526.395 55.4041 526.385 55.3553 526.385C55.3066 526.385 55.2585 526.395 55.2144 526.416L54.3567 526.918C54.2954 526.967 54.2832 527.04 54.3567 527.077Z" fill="#3A2C6D"/>
<path d="M53.0945 526.318L53.989 526.832C54.0322 526.856 54.0807 526.868 54.1299 526.868C54.1791 526.868 54.2276 526.856 54.2708 526.832L55.1286 526.343C55.2143 526.343 55.2143 526.22 55.1286 526.184L54.234 525.669C54.1908 525.646 54.1424 525.634 54.0931 525.634C54.0439 525.634 53.9954 525.646 53.9522 525.669L53.0945 526.159C53.0332 526.232 53.021 526.318 53.0945 526.318Z" fill="#3A2C6D"/>
<path d="M51.8201 525.62L52.7146 526.135C52.7607 526.156 52.8109 526.166 52.8616 526.166C52.9123 526.166 52.9625 526.156 53.0087 526.135L53.8542 525.645C53.9399 525.645 53.9522 525.523 53.8542 525.474L52.9596 524.96C52.9164 524.936 52.868 524.924 52.8187 524.924C52.7695 524.924 52.721 524.936 52.6778 524.96L51.8201 525.449C51.7588 525.498 51.7465 525.572 51.8201 525.62Z" fill="#3A2C6D"/>
<path d="M50.558 524.886L51.4525 525.4C51.4966 525.421 51.5447 525.432 51.5934 525.432C51.6421 525.432 51.6902 525.421 51.7343 525.4L52.5921 524.911C52.6778 524.911 52.6901 524.788 52.5921 524.739L51.6976 524.225C51.6514 524.204 51.6012 524.193 51.5505 524.193C51.4998 524.193 51.4497 524.204 51.4035 524.225L50.558 524.715C50.4967 524.764 50.4845 524.837 50.558 524.886Z" fill="#3A2C6D"/>
<path d="M49.2837 524.152L50.1904 524.666C50.2337 524.689 50.2821 524.702 50.3314 524.702C50.3806 524.702 50.4291 524.689 50.4723 524.666L51.3178 524.176C51.4035 524.176 51.4158 524.054 51.3178 524.017L50.4233 523.491C50.3792 523.47 50.3311 523.459 50.2823 523.459C50.2336 523.459 50.1855 523.47 50.1414 523.491L49.2837 523.993C49.2224 524.042 49.2102 524.115 49.2837 524.152Z" fill="#3A2C6D"/>
<path d="M48.0216 523.417L48.9161 523.944C48.9602 523.964 49.0083 523.975 49.057 523.975C49.1057 523.975 49.1539 523.964 49.1979 523.944L50.0557 523.442C50.1415 523.442 50.1537 523.319 50.0557 523.283L49.1612 522.769C49.1158 522.745 49.0653 522.733 49.0141 522.733C48.9629 522.733 48.9125 522.745 48.8671 522.769L48.0216 523.258C47.9603 523.307 47.9481 523.381 48.0216 523.417Z" fill="#3A2C6D"/>
<path d="M46.7595 522.646L47.654 523.16C47.6981 523.181 47.7462 523.192 47.7949 523.192C47.8436 523.192 47.8917 523.181 47.9358 523.16L48.7936 522.671C48.8793 522.671 48.8793 522.548 48.7936 522.499L47.8991 521.985C47.855 521.964 47.8069 521.954 47.7581 521.954C47.7094 521.954 47.6613 521.964 47.6172 521.985L46.7595 522.475C46.686 522.573 46.686 522.646 46.7595 522.646Z" fill="#3A2C6D"/>
<path d="M45.485 521.961L46.3795 522.475C46.4227 522.498 46.4712 522.511 46.5204 522.511C46.5696 522.511 46.6181 522.498 46.6613 522.475L47.5191 521.985C47.6048 521.985 47.6171 521.863 47.5191 521.826L46.6246 521.3C46.5805 521.279 46.5324 521.268 46.4836 521.268C46.4349 521.268 46.3868 521.279 46.3427 521.3L45.485 521.802C45.4237 521.851 45.4115 521.924 45.485 521.961Z" fill="#3A2C6D"/>
<path d="M44.223 521.226L45.1175 521.74C45.1608 521.764 45.2092 521.776 45.2585 521.776C45.3077 521.776 45.3561 521.764 45.3994 521.74L46.2571 521.251C46.3429 521.251 46.3429 521.128 46.2571 521.092L45.3381 520.565C45.2949 520.542 45.2464 520.529 45.1972 520.529C45.1479 520.529 45.0995 520.542 45.0563 520.565L44.1985 521.055C44.1127 521.116 44.1127 521.19 44.223 521.226Z" fill="#3A2C6D"/>
<path d="M42.9485 520.504L43.8431 521.018C43.8892 521.039 43.9394 521.05 43.9901 521.05C44.0408 521.05 44.091 521.039 44.1371 521.018L44.9826 520.529C45.0684 520.529 45.0807 520.406 44.9826 520.357L44.1126 519.831C44.0694 519.807 44.021 519.795 43.9717 519.795C43.9225 519.795 43.874 519.807 43.8308 519.831L42.9731 520.321C42.8873 520.382 42.8873 520.455 42.9485 520.504Z" fill="#3A2C6D"/>
<path d="M41.6619 519.77L42.5564 520.284C42.6005 520.305 42.6486 520.315 42.6973 520.315C42.746 520.315 42.7941 520.305 42.8382 520.284L43.696 519.794C43.7817 519.794 43.794 519.672 43.696 519.623L42.8872 519.097C42.841 519.076 42.7909 519.065 42.7402 519.065C42.6895 519.065 42.6393 519.076 42.5931 519.097L41.7476 519.586C41.6619 519.647 41.6619 519.721 41.6619 519.77Z" fill="#3A2C6D"/>
<path d="M40.4365 519.035L41.3433 519.549C41.3865 519.573 41.435 519.585 41.4842 519.585C41.5335 519.585 41.5819 519.573 41.6251 519.549L42.4829 519.06C42.5564 519.06 42.5686 518.937 42.4829 518.901L41.5884 518.374C41.5443 518.354 41.4962 518.343 41.4475 518.343C41.3987 518.343 41.3506 518.354 41.3065 518.374L40.4488 518.876C40.3508 518.974 40.3508 518.974 40.4365 519.035Z" fill="#3A2C6D"/>
<path d="M39.2113 518.301L40.1058 518.827C40.1499 518.848 40.198 518.859 40.2467 518.859C40.2954 518.859 40.3436 518.848 40.3876 518.827L41.2454 518.325C41.3312 518.325 41.3434 518.203 41.2454 518.166L40.3509 517.652C40.3055 517.629 40.255 517.616 40.2038 517.616C40.1526 517.616 40.1022 517.629 40.0568 517.652L39.2113 518.142C39.0888 518.191 39.0765 518.264 39.2113 518.301Z" fill="#3A2C6D"/>
<path d="M37.2751 517.224L38.7823 518.093C38.8263 518.114 38.8745 518.124 38.9232 518.124C38.9719 518.124 39.02 518.114 39.0641 518.093L39.9218 517.603C40.0076 517.603 40.0076 517.481 39.9218 517.432L38.4269 516.526C38.3828 516.505 38.3347 516.495 38.286 516.495C38.2373 516.495 38.1892 516.505 38.1451 516.526L37.2873 517.028C37.2745 517.027 37.2616 517.029 37.2493 517.033C37.2371 517.037 37.2259 517.044 37.2162 517.052C37.2065 517.061 37.1987 517.071 37.193 517.083C37.1873 517.094 37.184 517.107 37.1832 517.12C37.1824 517.133 37.1841 517.146 37.1883 517.158C37.1925 517.17 37.199 517.181 37.2076 517.191C37.2161 517.201 37.2264 517.208 37.238 517.214C37.2496 517.22 37.2622 517.223 37.2751 517.224Z" fill="#3A2C6D"/>
<path d="M51.2442 526.698L52.151 527.212C52.1942 527.235 52.2427 527.248 52.2919 527.248C52.3412 527.248 52.3896 527.235 52.4328 527.212L53.2906 526.722C53.3641 526.722 53.3764 526.6 53.2906 526.563L52.3961 526.049C52.3528 526.025 52.3044 526.013 52.2552 526.013C52.2059 526.013 52.1575 526.025 52.1142 526.049L51.2565 526.538C51.183 526.587 51.183 526.661 51.2442 526.698Z" fill="#3A2C6D"/>
<path d="M49.982 525.963L50.8766 526.49C50.9206 526.51 50.9687 526.521 51.0175 526.521C51.0662 526.521 51.1143 526.51 51.1584 526.49L52.0161 525.988C52.1019 525.988 52.1142 525.865 52.0161 525.829L51.1216 525.314C51.0762 525.291 51.0258 525.279 50.9746 525.279C50.9234 525.279 50.873 525.291 50.8275 525.314L49.982 525.804C49.9208 525.853 49.9085 525.926 49.982 525.963Z" fill="#3A2C6D"/>
<path d="M48.7076 525.241L49.6021 525.755C49.6483 525.776 49.6985 525.787 49.7492 525.787C49.7999 525.787 49.85 525.776 49.8962 525.755L50.7417 525.266C50.8275 525.266 50.8397 525.143 50.7417 525.094L49.8472 524.58C49.8031 524.559 49.755 524.549 49.7063 524.549C49.6576 524.549 49.6095 524.559 49.5654 524.58L48.7076 525.07C48.6464 525.094 48.6341 525.192 48.7076 525.241Z" fill="#3A2C6D"/>
<path d="M47.4456 524.507L48.3402 525.021C48.3842 525.041 48.4323 525.052 48.4811 525.052C48.5298 525.052 48.5779 525.041 48.622 525.021L49.4797 524.531C49.5655 524.531 49.5655 524.409 49.4797 524.36L48.5852 523.846C48.5411 523.825 48.493 523.814 48.4443 523.814C48.3956 523.814 48.3475 523.825 48.3034 523.846L47.4456 524.335C47.3721 524.384 47.3721 524.458 47.4456 524.507Z" fill="#3A2C6D"/>
<path d="M46.1836 523.772L47.0781 524.299C47.1222 524.319 47.1703 524.33 47.219 524.33C47.2677 524.33 47.3159 524.319 47.3599 524.299L48.2177 523.797C48.3035 523.797 48.3157 523.674 48.2177 523.638L47.3232 523.124C47.2778 523.1 47.2273 523.088 47.1761 523.088C47.1249 523.088 47.0745 523.1 47.0291 523.124L46.1836 523.613C46.1223 523.662 46.1101 523.736 46.1836 523.772Z" fill="#3A2C6D"/>
<path d="M44.9092 523.05L45.8037 523.564C45.8499 523.585 45.9 523.596 45.9507 523.596C46.0014 523.596 46.0516 523.585 46.0978 523.564L46.9433 523.075C47.029 523.075 47.0413 522.952 46.9433 522.903L46.0488 522.389C46.0047 522.368 45.9566 522.358 45.9078 522.358C45.8591 522.358 45.811 522.368 45.7669 522.389L44.9092 522.879C44.8479 522.928 44.8356 523.001 44.9092 523.05Z" fill="#3A2C6D"/>
<path d="M43.6471 522.316L44.5416 522.83C44.5856 522.851 44.6338 522.861 44.6825 522.861C44.7312 522.861 44.7793 522.851 44.8234 522.83L45.6811 522.34C45.7669 522.34 45.7669 522.218 45.6811 522.169L44.7866 521.655C44.7426 521.634 44.6944 521.623 44.6457 521.623C44.597 521.623 44.5489 521.634 44.5048 521.655L43.6471 522.144C43.5735 522.193 43.5735 522.267 43.6471 522.316Z" fill="#3A2C6D"/>
<path d="M42.3725 521.581L43.2671 522.095C43.3103 522.119 43.3587 522.131 43.408 522.131C43.4572 522.131 43.5057 522.119 43.5489 522.095L44.4066 521.606C44.4924 521.606 44.5047 521.483 44.4066 521.447L43.5121 520.92C43.4659 520.899 43.4158 520.888 43.3651 520.888C43.3144 520.888 43.2642 520.899 43.218 520.92L42.3725 521.422C42.3113 521.422 42.299 521.545 42.3725 521.581Z" fill="#3A2C6D"/>
<path d="M41.0984 520.847L42.0051 521.361C42.0483 521.385 42.0968 521.397 42.146 521.397C42.1953 521.397 42.2437 521.385 42.2869 521.361L43.1447 520.871C43.2182 520.871 43.2305 520.749 43.1447 520.712L42.2502 520.198C42.207 520.175 42.1585 520.162 42.1093 520.162C42.06 520.162 42.0116 520.175 41.9684 520.198L41.1106 520.688C41.0371 520.737 41.0371 520.81 41.0984 520.847Z" fill="#3A2C6D"/>
<path d="M39.8362 520.112L40.7307 520.639C40.7748 520.66 40.8229 520.67 40.8716 520.67C40.9203 520.67 40.9684 520.66 41.0125 520.639L41.8703 520.137C41.956 520.137 41.9683 520.015 41.8703 519.978L40.9758 519.464C40.9303 519.44 40.8799 519.428 40.8287 519.428C40.7775 519.428 40.7271 519.44 40.6817 519.464L39.8362 519.953C39.7749 520.002 39.7627 520.076 39.8362 520.112Z" fill="#3A2C6D"/>
<path d="M38.5618 519.39L39.4563 519.904C39.5024 519.925 39.5526 519.936 39.6033 519.936C39.654 519.936 39.7042 519.925 39.7503 519.904L40.5958 519.415C40.6816 519.415 40.6939 519.292 40.5958 519.243L39.7013 518.729C39.6573 518.709 39.6091 518.698 39.5604 518.698C39.5117 518.698 39.4636 518.709 39.4195 518.729L38.5618 519.219C38.5005 519.268 38.4882 519.341 38.5618 519.39Z" fill="#3A2C6D"/>
<path d="M37.2996 518.656L38.1942 519.17C38.2382 519.191 38.2864 519.201 38.3351 519.201C38.3838 519.201 38.4319 519.191 38.476 519.17L39.3337 518.68C39.4195 518.68 39.4195 518.558 39.3337 518.509L38.4392 517.995C38.3952 517.974 38.347 517.964 38.2983 517.964C38.2496 517.964 38.2015 517.974 38.1574 517.995L37.2996 518.485C37.2261 518.534 37.2261 518.607 37.2996 518.656Z" fill="#3A2C6D"/>
<path d="M52.5185 527.432L54.0257 528.301C54.0698 528.322 54.1179 528.333 54.1666 528.333C54.2154 528.333 54.2635 528.322 54.3076 528.301L55.1653 527.811C55.2511 527.811 55.2633 527.689 55.1653 527.64L53.6581 526.771C53.6119 526.75 53.5618 526.739 53.5111 526.739C53.4604 526.739 53.4102 526.75 53.364 526.771L52.5185 527.273C52.4573 527.322 52.445 527.395 52.5185 527.432Z" fill="#3A2C6D"/>
<path d="M37.1894 517.261L38.0839 517.775C38.1574 517.775 38.1574 517.885 38.0839 517.934L37.1772 518.448C37.1385 518.472 37.0939 518.484 37.0485 518.484C37.0031 518.484 36.9585 518.472 36.9198 518.448H36.8463C36.8081 518.429 36.7662 518.42 36.7238 518.42C36.6813 518.42 36.6395 518.429 36.6012 518.448L35.6455 518.999C35.6029 519.017 35.557 519.026 35.5107 519.026C35.4643 519.026 35.4185 519.017 35.3759 518.999L34.8122 518.668C34.7387 518.668 34.7387 518.558 34.8122 518.509L35.7067 517.995L35.8905 517.897L36.0253 517.811L36.1601 517.738L36.9198 517.297C36.9575 517.268 37.0023 517.249 37.0496 517.242C37.097 517.236 37.1453 517.242 37.1894 517.261Z" fill="#3A2C6D"/>
<path d="M49.4429 529.904L50.3374 530.419C50.3806 530.442 50.429 530.454 50.4783 530.454C50.5275 530.454 50.576 530.442 50.6192 530.419L51.4769 529.929C51.5627 529.929 51.5627 529.807 51.4769 529.77L50.5824 529.256C50.5392 529.232 50.4908 529.22 50.4415 529.22C50.3923 529.22 50.3438 529.232 50.3006 529.256L49.4429 529.745C49.3816 529.794 49.3693 529.868 49.4429 529.904Z" fill="#3A2C6D"/>
<path d="M48.1808 529.182L49.0753 529.696C49.1193 529.717 49.1675 529.728 49.2162 529.728C49.2649 529.728 49.313 529.717 49.3571 529.696L50.2148 529.207C50.3006 529.207 50.3006 529.084 50.2148 529.035L49.3203 528.521C49.2763 528.501 49.2281 528.49 49.1794 528.49C49.1307 528.49 49.0826 528.501 49.0385 528.521L48.1808 529.011C48.1072 529.06 48.1072 529.133 48.1808 529.182Z" fill="#3A2C6D"/>
<path d="M46.9065 528.448L47.8132 528.962C47.8564 528.986 47.9049 528.998 47.9541 528.998C48.0034 528.998 48.0518 528.986 48.0951 528.962L48.9528 528.472C49.0263 528.472 49.0386 528.35 48.9528 528.313L48.0583 527.799C48.0151 527.776 47.9666 527.763 47.9174 527.763C47.8681 527.763 47.8197 527.776 47.7765 527.799L46.9187 528.301C46.8452 528.338 46.8452 528.411 46.9065 528.448Z" fill="#3A2C6D"/>
<path d="M36.1478 522.242L37.0423 522.756C37.0877 522.78 37.1382 522.792 37.1894 522.792C37.2406 522.792 37.291 522.78 37.3364 522.756L38.1819 522.267C38.2677 522.267 38.2799 522.144 38.1819 522.108L37.2874 521.581C37.2433 521.561 37.1952 521.55 37.1465 521.55C37.0978 521.55 37.0496 521.561 37.0056 521.581L36.1478 522.083C36.0866 522.132 36.0743 522.206 36.1478 522.242Z" fill="#3A2C6D"/>
<path d="M34.8857 521.52L35.7802 522.034C35.8243 522.055 35.8724 522.066 35.9212 522.066C35.9699 522.066 36.018 522.055 36.0621 522.034L36.9198 521.532C37.0056 521.532 37.0178 521.422 36.9198 521.373L36.0253 520.859C35.9799 520.836 35.9295 520.823 35.8783 520.823C35.8271 520.823 35.7766 520.836 35.7312 520.859L34.8857 521.349C34.8245 521.422 34.8122 521.422 34.8857 521.52Z" fill="#3A2C6D"/>
<path d="M33.6236 520.786L34.5182 521.3C34.5614 521.323 34.6098 521.336 34.6591 521.336C34.7083 521.336 34.7568 521.323 34.8 521.3L35.6577 520.81C35.7435 520.81 35.7558 520.688 35.6577 520.651L34.7632 520.125C34.717 520.104 34.6669 520.093 34.6162 520.093C34.5655 520.093 34.5153 520.104 34.4691 520.125L33.6236 520.627C33.5624 520.676 33.5501 520.749 33.6236 520.786Z" fill="#3A2C6D"/>
<path d="M32.3615 520.051L33.256 520.578C33.3001 520.598 33.3482 520.609 33.3969 520.609C33.4457 520.609 33.4938 520.598 33.5379 520.578L34.3956 520.076C34.4814 520.076 34.4814 519.953 34.3956 519.917L33.4889 519.403C33.4456 519.379 33.3972 519.367 33.3479 519.367C33.2987 519.367 33.2502 519.379 33.207 519.403L32.3493 519.892C32.3003 519.941 32.288 520.015 32.3615 520.051Z" fill="#3A2C6D"/>
<path d="M45.338 527.542L46.5634 528.252C46.6096 528.273 46.6597 528.284 46.7104 528.284C46.7611 528.284 46.8113 528.273 46.8575 528.252L47.703 527.762C47.7887 527.762 47.801 527.64 47.703 527.591L46.4776 526.893C46.4344 526.87 46.3859 526.857 46.3367 526.857C46.2874 526.857 46.239 526.87 46.1958 526.893L45.338 527.383C45.2645 527.42 45.2522 527.542 45.338 527.542Z" fill="#3A2C6D"/>
<path d="M37.41 522.977L38.6354 523.674C38.6786 523.698 38.7271 523.71 38.7763 523.71C38.8255 523.71 38.874 523.698 38.9172 523.674L39.775 523.185C39.8607 523.185 39.873 523.062 39.775 523.013L38.5496 522.316C38.5055 522.295 38.4574 522.284 38.4087 522.284C38.36 522.284 38.3118 522.295 38.2678 522.316L37.41 522.805C37.3488 522.854 37.3365 522.928 37.41 522.977Z" fill="#3A2C6D"/>
<path d="M39.0029 523.87L44.9581 527.31C45.0022 527.33 45.0503 527.341 45.099 527.341C45.1477 527.341 45.1959 527.33 45.2399 527.31L46.0977 526.82C46.1835 526.82 46.1835 526.698 46.0977 526.649L40.1547 523.221C40.1093 523.198 40.0589 523.186 40.0077 523.186C39.9565 523.186 39.906 523.198 39.8606 523.221L39.0151 523.711C38.9416 523.772 38.9294 523.87 39.0029 523.87Z" fill="#3A2C6D"/>
<path d="M49.6756 527.212L50.5702 527.726C50.6134 527.749 50.6618 527.762 50.7111 527.762C50.7603 527.762 50.8088 527.749 50.852 527.726L51.7097 527.236C51.7955 527.236 51.8078 527.114 51.7097 527.065L50.8152 526.551C50.7691 526.53 50.7189 526.519 50.6682 526.519C50.6175 526.519 50.5673 526.53 50.5211 526.551L49.6756 527.04C49.6144 527.089 49.6021 527.163 49.6756 527.212Z" fill="#3A2C6D"/>
<path d="M48.4137 526.477L49.3082 526.991C49.3514 527.015 49.3999 527.027 49.4491 527.027C49.4984 527.027 49.5468 527.015 49.59 526.991L50.4478 526.502C50.5336 526.502 50.5336 526.379 50.4478 526.343L49.5533 525.829C49.51 525.805 49.4616 525.793 49.4124 525.793C49.3631 525.793 49.3147 525.805 49.2714 525.829L48.4137 526.318C48.3524 526.318 48.3402 526.441 48.4137 526.477Z" fill="#3A2C6D"/>
<path d="M47.1393 525.755L48.046 526.269C48.0901 526.29 48.1382 526.301 48.1869 526.301C48.2356 526.301 48.2838 526.29 48.3278 526.269L49.1856 525.78C49.2591 525.78 49.2714 525.657 49.1856 525.608L48.2911 525.094C48.247 525.073 48.1989 525.063 48.1502 525.063C48.1014 525.063 48.0533 525.073 48.0093 525.094L47.1515 525.584C47.078 525.633 47.078 525.706 47.1393 525.755Z" fill="#3A2C6D"/>
<path d="M45.8772 525.021L46.7717 525.535C46.8149 525.558 46.8634 525.571 46.9126 525.571C46.9619 525.571 47.0103 525.558 47.0535 525.535L47.9113 525.045C47.9971 525.045 48.0093 524.923 47.9113 524.874L47.0168 524.36C46.9727 524.339 46.9246 524.328 46.8759 524.328C46.8271 524.328 46.779 524.339 46.7349 524.36L45.8772 524.862C45.8159 524.911 45.8037 524.984 45.8772 525.021Z" fill="#3A2C6D"/>
<path d="M44.615 524.286L45.5095 524.8C45.5527 524.824 45.6012 524.836 45.6504 524.836C45.6997 524.836 45.7481 524.824 45.7913 524.8L46.6491 524.299C46.7348 524.299 46.7471 524.176 46.6491 524.139L45.7546 523.625C45.7091 523.602 45.6587 523.589 45.6075 523.589C45.5563 523.589 45.5059 523.602 45.4605 523.625L44.615 524.115C44.5537 524.176 44.5415 524.25 44.615 524.286Z" fill="#3A2C6D"/>
<path d="M43.3529 523.564L44.2474 524.078C44.2915 524.099 44.3396 524.11 44.3883 524.11C44.437 524.11 44.4851 524.099 44.5292 524.078L45.387 523.589C45.4605 523.589 45.4727 523.466 45.387 523.417L44.4924 522.903C44.4484 522.882 44.4003 522.872 44.3515 522.872C44.3028 522.872 44.2547 522.882 44.2106 522.903L43.3529 523.393C43.2793 523.442 43.2793 523.515 43.3529 523.564Z" fill="#3A2C6D"/>
<path d="M42.0786 522.83L42.9731 523.344C43.0185 523.367 43.069 523.38 43.1202 523.38C43.1713 523.38 43.2218 523.367 43.2672 523.344L44.1127 522.854C44.1985 522.854 44.2107 522.732 44.1127 522.695L43.2182 522.169C43.1741 522.148 43.126 522.137 43.0773 522.137C43.0285 522.137 42.9804 522.148 42.9364 522.169L42.0786 522.671C42.0173 522.72 42.0051 522.793 42.0786 522.83Z" fill="#3A2C6D"/>
<path d="M40.8165 522.095L41.6619 522.646C41.706 522.667 41.7541 522.678 41.8029 522.678C41.8516 522.678 41.8997 522.667 41.9438 522.646L42.8015 522.144C42.8873 522.144 42.8996 522.022 42.8015 521.985L41.907 521.471C41.8616 521.448 41.8112 521.435 41.76 521.435C41.7088 521.435 41.6583 521.448 41.6129 521.471L40.7674 521.961C40.7552 521.985 40.7429 522.059 40.8165 522.095Z" fill="#3A2C6D"/>
<path d="M39.5543 521.422L40.4488 521.936C40.4929 521.957 40.541 521.968 40.5897 521.968C40.6384 521.968 40.6866 521.957 40.7306 521.936L41.5884 521.447C41.6741 521.447 41.6741 521.324 41.5884 521.275L40.6939 520.761C40.6498 520.74 40.6017 520.73 40.553 520.73C40.5042 520.73 40.4561 520.74 40.412 520.761L39.5543 521.251C39.4808 521.251 39.4808 521.324 39.5543 521.422Z" fill="#3A2C6D"/>
<path d="M38.2799 520.639L39.1744 521.153C39.2198 521.177 39.2703 521.189 39.3215 521.189C39.3726 521.189 39.4231 521.177 39.4685 521.153L40.314 520.663C40.3998 520.663 40.412 520.541 40.314 520.504L39.4195 519.978C39.3754 519.957 39.3273 519.946 39.2786 519.946C39.2298 519.946 39.1817 519.957 39.1376 519.978L38.2799 520.48C38.2186 520.529 38.2064 520.602 38.2799 520.639Z" fill="#3A2C6D"/>
<path d="M37.0179 519.904L37.9124 520.431C37.9565 520.451 38.0046 520.462 38.0534 520.462C38.1021 520.462 38.1502 520.451 38.1943 520.431L39.052 519.929C39.1378 519.929 39.1501 519.806 39.052 519.77L38.1575 519.256C38.1121 519.232 38.0617 519.22 38.0105 519.22C37.9593 519.22 37.9088 519.232 37.8634 519.256L37.0179 519.745C36.9567 519.794 36.9444 519.868 37.0179 519.904Z" fill="#3A2C6D"/>
<path d="M35.7558 519.182L36.6503 519.696C36.6944 519.717 36.7425 519.728 36.7912 519.728C36.84 519.728 36.8881 519.717 36.9322 519.696L37.7899 519.207C37.8757 519.207 37.8757 519.084 37.7899 519.035L36.8954 518.521C36.8513 518.501 36.8032 518.49 36.7545 518.49C36.7058 518.49 36.6576 518.501 36.6136 518.521L35.7558 519.011C35.6823 519.06 35.6823 519.133 35.7558 519.182Z" fill="#3A2C6D"/>
<path d="M50.9379 527.946L52.8004 529.011C52.8445 529.032 52.8926 529.042 52.9413 529.042C52.99 529.042 53.0382 529.032 53.0822 529.011L53.9277 528.521C54.0135 528.521 54.0258 528.399 53.9277 528.35L52.0774 527.285C52.0342 527.262 51.9858 527.249 51.9365 527.249C51.8873 527.249 51.8388 527.262 51.7956 527.285L50.9379 527.775C50.8766 527.824 50.8643 527.897 50.9379 527.946Z" fill="#3A2C6D"/>
<path d="M49.0754 528.277L49.9699 528.803C50.014 528.824 50.0621 528.834 50.1108 528.834C50.1595 528.834 50.2076 528.824 50.2517 528.803L51.1095 528.301C51.1952 528.301 51.2075 528.179 51.1095 528.142L50.2149 527.628C50.1717 527.604 50.1233 527.592 50.074 527.592C50.0248 527.592 49.9763 527.604 49.9331 527.628L49.0754 528.117C49.0141 528.166 49.0141 528.24 49.0754 528.277Z" fill="#3A2C6D"/>
<path d="M47.7887 527.542L48.6832 528.056C48.7273 528.077 48.7754 528.088 48.8241 528.088C48.8728 528.088 48.921 528.077 48.965 528.056L49.8228 527.567C49.9086 527.567 49.9208 527.444 49.8228 527.395L48.916 526.881C48.8719 526.86 48.8238 526.85 48.7751 526.85C48.7264 526.85 48.6783 526.86 48.6342 526.881L47.7887 527.371C47.7887 527.432 47.7887 527.542 47.7887 527.542Z" fill="#3A2C6D"/>
<path d="M46.5634 526.82L47.4579 527.334C47.5011 527.358 47.5495 527.37 47.5988 527.37C47.648 527.37 47.6965 527.358 47.7397 527.334L48.5974 526.844C48.671 526.844 48.6832 526.722 48.5974 526.685L47.7029 526.159C47.6589 526.138 47.6107 526.128 47.562 526.128C47.5133 526.128 47.4652 526.138 47.4211 526.159L46.5634 526.661C46.4776 526.71 46.4776 526.783 46.5634 526.82Z" fill="#3A2C6D"/>
<path d="M45.338 526.086L46.2325 526.612C46.2787 526.633 46.3288 526.644 46.3796 526.644C46.4303 526.644 46.4804 526.633 46.5266 526.612L47.3721 526.11C47.4579 526.11 47.4701 525.988 47.3721 525.951L46.4776 525.437C46.4344 525.413 46.3859 525.401 46.3367 525.401C46.2874 525.401 46.239 525.413 46.1958 525.437L45.338 525.926C45.2155 525.975 45.2032 526.049 45.338 526.086Z" fill="#3A2C6D"/>
<path d="M44.0146 525.363L44.9092 525.878C44.9532 525.898 45.0013 525.909 45.0501 525.909C45.0988 525.909 45.1469 525.898 45.191 525.878L46.0487 525.388C46.1345 525.388 46.1468 525.266 46.0487 525.217L45.1542 524.702C45.108 524.681 45.0579 524.671 45.0072 524.671C44.9565 524.671 44.9063 524.681 44.8601 524.702L44.0146 525.192C43.9534 525.241 43.9411 525.314 44.0146 525.363Z" fill="#3A2C6D"/>
<path d="M42.7525 524.629L43.647 525.143C43.6903 525.167 43.7387 525.179 43.788 525.179C43.8372 525.179 43.8856 525.167 43.9289 525.143L44.7866 524.654C44.8724 524.654 44.8724 524.531 44.7866 524.494L43.8921 523.98C43.8489 523.957 43.8004 523.944 43.7512 523.944C43.702 523.944 43.6535 523.957 43.6103 523.98L42.7525 524.47C42.679 524.519 42.679 524.592 42.7525 524.629Z" fill="#3A2C6D"/>
<path d="M41.4781 523.87L42.3727 524.384C42.4188 524.405 42.469 524.416 42.5197 524.416C42.5704 524.416 42.6206 524.405 42.6667 524.384L43.5122 523.895C43.598 523.895 43.6103 523.772 43.5122 523.723L42.6177 523.209C42.5745 523.186 42.526 523.173 42.4768 523.173C42.4276 523.173 42.3791 523.186 42.3359 523.209L41.4781 523.699C41.4169 523.784 41.4046 523.87 41.4781 523.87Z" fill="#3A2C6D"/>
<path d="M40.2161 523.172L41.1106 523.687C41.1538 523.71 41.2022 523.722 41.2515 523.722C41.3007 523.722 41.3492 523.71 41.3924 523.687L42.2501 523.197C42.3359 523.197 42.3482 523.075 42.2501 523.026L41.3556 522.512C41.3095 522.491 41.2593 522.48 41.2086 522.48C41.1579 522.48 41.1077 522.491 41.0615 522.512L40.2161 523.013C40.1548 523.05 40.1425 523.124 40.2161 523.172Z" fill="#3A2C6D"/>
<path d="M38.9539 522.438L39.8484 522.952C39.8923 522.974 39.9405 522.985 39.9894 522.985C40.0382 522.985 40.0864 522.974 40.1303 522.952L40.988 522.45C41.0738 522.45 41.0738 522.328 40.988 522.291L40.0813 521.777C40.038 521.754 39.9896 521.741 39.9403 521.741C39.8911 521.741 39.8426 521.754 39.7994 521.777L38.9417 522.267C38.8927 522.328 38.8804 522.401 38.9539 522.438Z" fill="#3A2C6D"/>
<path d="M37.6917 521.716L38.5862 522.23C38.6303 522.251 38.6784 522.261 38.7272 522.261C38.7759 522.261 38.824 522.251 38.8681 522.23L39.7258 521.74C39.7993 521.74 39.8116 521.618 39.7258 521.569L38.8313 521.055C38.7872 521.034 38.7391 521.023 38.6904 521.023C38.6417 521.023 38.5936 521.034 38.5495 521.055L37.6917 521.545C37.6182 521.594 37.6182 521.667 37.6917 521.716Z" fill="#3A2C6D"/>
<path d="M36.4175 520.982L37.312 521.496C37.3574 521.519 37.4078 521.532 37.459 521.532C37.5102 521.532 37.5607 521.519 37.6061 521.496L38.4516 521.006C38.5373 521.006 38.5496 520.884 38.4516 520.847L37.5571 520.321C37.513 520.3 37.4649 520.289 37.4161 520.289C37.3674 520.289 37.3193 520.3 37.2752 520.321L36.4175 520.822C36.3562 520.871 36.3439 520.945 36.4175 520.982Z" fill="#3A2C6D"/>
<path d="M33.5868 519.354L36.0375 520.773C36.0816 520.794 36.1297 520.805 36.1784 520.805C36.2271 520.805 36.2752 520.794 36.3193 520.773L37.1771 520.272C37.2628 520.272 37.2751 520.149 37.1771 520.112L34.7264 518.693C34.6809 518.669 34.6305 518.657 34.5793 518.657C34.5281 518.657 34.4777 518.669 34.4323 518.693L33.5868 519.182C33.5255 519.231 33.5133 519.305 33.5868 519.354Z" fill="#3A2C6D"/>
<path d="M50.3374 529.011L51.5628 529.721C51.6069 529.742 51.655 529.752 51.7037 529.752C51.7524 529.752 51.8005 529.742 51.8446 529.721L52.7024 529.219C52.7881 529.219 52.8004 529.097 52.7024 529.06L51.477 528.35C51.4329 528.329 51.3848 528.319 51.3361 528.319C51.2874 528.319 51.2393 528.329 51.1952 528.35L50.3374 528.852C50.2394 528.901 50.2394 528.974 50.3374 529.011Z" fill="#3A2C6D"/>
<path d="M59.6257 526.502L39.3093 514.776V498.864L39.4686 498.497L39.6279 498.423C39.8413 498.297 40.0846 498.231 40.3325 498.231C40.5804 498.231 40.8237 498.297 41.0371 498.423L59.6257 509.133C59.8379 509.26 60.0136 509.439 60.136 509.653C60.2584 509.868 60.3232 510.11 60.3241 510.357V525.339C60.1894 526.061 60.0423 526.245 59.6257 526.502Z" fill="#E5E5E5"/>
<path d="M57.7632 511.03L39.3093 499.39V498.864L39.4686 498.497L39.6279 498.423C39.8413 498.297 40.0846 498.231 40.3325 498.231C40.5804 498.231 40.8237 498.297 41.0371 498.423L59.6257 509.133C59.8544 509.263 60.0381 509.46 60.1526 509.696L57.7632 511.03Z" fill="#E5E5E5"/>
<path d="M39.7749 498.46L59.2826 509.708C59.3852 509.769 59.4706 509.855 59.5307 509.958C59.5907 510.06 59.6234 510.177 59.6257 510.296V526.502L39.3093 514.776V498.729C39.3079 498.674 39.3213 498.62 39.3482 498.572C39.3751 498.524 39.4144 498.484 39.4621 498.456C39.5097 498.429 39.5639 498.415 39.619 498.415C39.674 498.416 39.7279 498.431 39.7749 498.46Z" fill="#DCEEFF"/>
<path d="M39.7749 498.46L59.2826 509.708C59.3852 509.769 59.4706 509.855 59.5307 509.958C59.5907 510.06 59.6234 510.177 59.6257 510.296V526.502L39.3093 514.776V498.729C39.3079 498.674 39.3213 498.62 39.3482 498.572C39.3751 498.524 39.4144 498.484 39.4621 498.456C39.5097 498.429 39.5639 498.415 39.619 498.415C39.674 498.416 39.7279 498.431 39.7749 498.46Z" fill="#F4F4F4"/>
<path d="M59.6257 526.502V525.914L39.3093 514.201V514.776L59.6257 526.502Z" fill="#DBDBDB"/>
<path d="M39.8362 513.931V499.304L40.0813 499.439V513.809L39.8362 513.931Z" fill="#1E3779"/>
<path d="M40.0812 499.439V513.809L58.9761 524.666V510.333L40.0812 499.439Z" fill="#3A2C6D"/>
<path d="M39.8362 513.931L58.9762 524.959V524.666L40.0813 513.809L39.8362 513.931Z" fill="#031F60"/>
<path d="M17.9636 495.926C17.4734 497.15 18.711 498.595 21.9827 499.598C25.2544 500.602 25.5485 499.304 25.5485 499.304C27.7307 500.281 29.8578 501.376 31.9203 502.585C33.8809 503.956 34.7509 507.934 35.0205 514.641C35.3268 522.401 35.3513 533.907 35.094 535.902C35.094 535.902 31.4179 539.574 26.7248 539.17C22.0317 538.766 14.1037 534.629 12.1921 531.422C12.1921 524.617 13.0376 523.503 11.9348 519.586C9.41059 510.614 8.07495 506.942 9.31256 500.969C10.3174 496.073 11.7633 495.449 13.6871 495.498C15.1191 495.566 16.5466 495.709 17.9636 495.926Z" fill="#F4F4F4"/>
<path d="M42.7525 522.977C38.8926 523.956 37.9859 521.52 37.4835 519.513C36.2581 514.617 35.5964 510.235 34.6774 507.469C33.5991 504.213 32.4718 503.686 30.8788 503.05C29.0285 502.303 27.4233 503.882 28.036 508.032C28.8002 512.85 29.9851 517.593 31.5773 522.205C32.1409 524.282 33.2295 526.179 34.7387 527.713C36.736 529.329 39.7381 529.256 44.2719 528.13C46.931 527.225 49.5126 526.108 51.9917 524.788C52.972 524.335 53.7317 524.029 55.6677 523.148C57.5857 522.311 59.2687 521.016 60.5692 519.378C61.5494 517.946 61.6842 517.273 61.4882 516.93C61.2921 516.587 60.7775 516.612 60.2628 517.212C59.5023 518.225 58.564 519.091 57.4935 519.77C57.4935 519.77 58.7189 518.546 59.3683 517.701C59.9634 516.955 60.454 516.132 60.8265 515.253C61.1818 514.421 60.4589 513.295 59.9075 513.882C59.3561 514.47 59.111 515.106 58.1062 516.33C57.5815 516.968 56.9807 517.539 56.3172 518.032C56.939 517.196 57.4922 516.312 57.9714 515.388C58.4013 514.646 58.6097 513.796 58.5718 512.94C58.5718 512.511 57.9224 511.997 57.3465 512.817C56.7497 513.986 56.0087 515.076 55.1408 516.061C54.2586 516.979 53.5111 517.505 53.4866 517.285C53.4621 517.065 54.0258 516.526 54.3321 515.473C54.6384 514.421 54.3321 513.283 53.7439 513.16C53.1558 513.038 53.266 513.062 52.8004 514.066C52.1463 515.087 51.5609 516.15 51.0482 517.248C50.7459 518.273 50.1993 519.21 49.4552 519.978C48.5239 520.945 46.4286 522.059 42.7525 522.977Z" fill="#FFCEA9"/>
<path d="M29.4084 502.389C31.9816 502.009 33.8074 503.172 34.947 507.065C36.0866 510.957 36.8708 514.164 36.8708 514.164C35.8536 515.635 34.3096 516.661 32.5575 517.028C29.4819 517.775 28.3668 516.306 28.3668 516.306C28.3668 516.306 27.5091 512.218 26.9822 509.439C26.4553 506.661 26.2715 502.854 29.4084 502.389Z" fill="#EDEDED"/>
<path d="M30.7318 482.425C30.7318 482.425 34.8 476.244 25.9775 474.984C19.6179 474.078 15.5252 478.154 15.0595 482.585C14.6062 486.82 17.2162 491.214 19.091 492.964C20.9434 493.435 22.905 493.199 24.5928 492.303C24.698 491.148 24.7389 489.987 24.7153 488.827C24.7153 488.827 21.6152 482.315 30.7318 482.425Z" fill="#73512A"/>
<path d="M48.3891 560.651V542.083L33.6235 550.688L39.3092 562.426L48.3891 560.651Z" fill="#C4C7D6"/>
<path d="M38.709 543.148L44.3701 539.868L48.377 542.181L42.5076 545.51L38.709 543.148Z" fill="#D6D8E5"/>
<path opacity="0.4" d="M272.151 458.998L202.404 418.777C197.368 415.877 198.005 410.809 203.813 407.455L249.004 381.396L336.972 432.168L291.794 458.227C285.973 461.581 277.187 461.936 272.151 458.998Z" fill="#D6D8E5"/>
<path d="M277.249 456.048L207.489 415.815C202.465 412.914 203.102 407.859 208.898 404.506L254.089 378.447L342.058 429.169L296.867 455.24C291.058 458.582 282.273 458.998 277.249 456.048Z" fill="#B1B4C4"/>
<path d="M342.057 429.169V426.513L338.001 428.851L342.057 429.169Z" fill="#B1B4C4"/>
<path d="M204.095 411.03V408.325L208.274 410.05L204.095 411.03Z" fill="#B1B4C4"/>
<path d="M277.249 453.392L207.489 413.159C202.465 410.258 203.102 405.191 208.898 401.85L254.089 375.766L342.058 426.501L296.867 452.56C291.058 455.926 282.273 456.281 277.249 453.392Z" fill="#D6D8E5"/>
<path d="M254.334 375.901L243.441 339.817L332.365 390.772L342.057 426.513L254.334 375.901Z" fill="#9EA1AF"/>
<path d="M339.484 427.994L342.058 426.513L338.198 423.502L339.484 427.994Z" fill="#9EA1AF"/>
<path d="M251.528 377.259L240.635 341.176L329.559 392.131L339.484 427.994L251.528 377.259Z" fill="#B1B4C4"/>
<path d="M477.263 488.802L133.049 290.294C128.221 287.503 124.312 280.037 124.312 273.611V7.64811C124.312 1.22211 128.221 -1.73997 133.049 1.05075L477.263 199.51C482.091 202.289 486 209.755 486 216.193V482.254C486 488.631 482.091 491.593 477.263 488.802Z" fill="#C4C7D6"/>
<path d="M479.028 491.544L482.851 489.353L481.197 478.056L479.028 491.544Z" fill="#C4C7D6"/>
<path d="M123.687 2.67865L127.437 0.524414L132.828 3.59665C132.828 3.59665 127.081 4.46569 126.946 4.42897C126.812 4.39225 123.687 2.67865 123.687 2.67865Z" fill="#B1B4C4"/>
<path d="M474.102 490.626L129.888 292.118C125.06 289.327 121.139 281.861 121.139 275.435V9.47197C121.139 3.03373 125.06 0.083886 129.888 2.86237L474.09 201.371C478.918 204.161 482.839 211.628 482.839 218.066V484.017C482.851 490.455 478.93 493.405 474.102 490.626Z" fill="#E4E7F2"/>
<path d="M473.501 490.969L129.287 292.461C124.459 289.67 120.55 282.204 120.55 275.778V9.79008C120.55 3.36408 124.459 0.402 129.287 3.19272L473.501 201.726C478.329 204.504 482.238 211.97 482.238 218.409V484.372C482.238 490.822 478.329 493.76 473.501 490.969Z" fill="#201D38"/>
<path opacity="0.3" d="M477.508 474.8L124.913 271.457L125.096 10.8794C125.096 8.21109 126.971 7.13397 129.287 8.43141L473.501 206.976C474.721 207.77 475.737 208.839 476.465 210.098C477.193 211.358 477.613 212.771 477.692 214.223L477.508 474.8Z" fill="url(#paint0_linear)"/>
<path d="M434.474 242.521L343.332 189.902V181.481L434.474 234.1V242.521Z" fill="#A298E2"/>
<path d="M371.074 300.209L343.332 284.199V275.79L371.074 291.787V300.209Z" fill="#C33AFC"/>
<path d="M353.551 263.158L343.332 257.258V248.837L353.551 254.737V263.158Z" fill="#4D3BFF"/>
<path d="M221.397 176.425L192.197 159.583V151.162L221.397 168.004V176.425Z" fill="#C33AFC"/>
<path d="M284.184 239.584L192.197 186.536V178.115L284.184 231.163V239.584Z" fill="#F4CE2C"/>
<path d="M359.776 213.06L343.332 203.378V194.957L359.776 204.639V213.06Z" fill="#4D3BFF"/>
<path d="M400.017 330.515L343.332 297.675V289.254L400.017 322.094V330.515Z" fill="#4D3BFF"/>
<path d="M349.998 355.778L343.332 351.568V343.146L349.998 347.357V355.778Z" fill="#A298E2"/>
<path d="M273.965 179.791L192.197 132.643V124.222L273.965 171.37V179.791Z" fill="#FF8657"/>
<path d="M219.939 215.997L192.197 200V191.579L219.939 207.576V215.997Z" fill="#FF8657"/>
<path d="M338.957 295.153L315.59 281.677V273.256L338.957 286.732V295.153Z" fill="#A298E2"/>
<path d="M338.957 254.737L315.59 241.261V232.84L338.957 246.316V254.737Z" fill="#A298E2"/>
<path d="M187.822 210.955L164.455 197.478V189.057L187.822 202.533V210.955Z" fill="#A298E2"/>
<path d="M338.957 200.844L315.59 187.38V178.959L338.957 192.423V200.844Z" fill="#A298E2"/>
<path d="M338.957 281.677L315.59 268.213V259.792L338.957 273.256V281.677Z" fill="#A298E2"/>
<path d="M338.957 308.63L315.59 295.153V286.732L338.957 300.209V308.63Z" fill="#A298E2"/>
<path d="M187.822 157.062L164.455 143.586V135.164L187.822 148.641V157.062Z" fill="#A298E2"/>
<path d="M187.822 224.419L164.455 210.942V202.533L187.822 215.997V224.419Z" fill="#A298E2"/>
<path d="M338.957 214.321L315.59 200.844V192.423L338.957 205.899V214.321Z" fill="#A298E2"/>
<path d="M338.957 335.57L315.59 322.094V313.673L338.957 327.149V335.57Z" fill="#A298E2"/>
<path d="M187.822 89.7051L164.455 76.2289V67.8077L187.822 81.284V89.7051Z" fill="#A298E2"/>
<path d="M187.822 143.586L164.455 130.122V121.7L187.822 135.164V143.586Z" fill="#A298E2"/>
<path d="M187.822 251.371L164.455 237.895V229.474L187.822 242.95V251.371Z" fill="#A298E2"/>
<path d="M416.498 272.412L343.332 230.318V221.897L416.498 264.003V272.412Z" fill="#FF8657"/>
<path d="M435.319 323.783L343.332 270.735V262.314L435.319 315.362V323.783Z" fill="#A298E2"/>
<path d="M385.938 349.046L343.332 324.615V316.206L385.938 340.625V349.046Z" fill="#4D3BFF"/>
<path d="M257.9 157.062L192.197 119.167V110.746L257.9 148.641V157.062Z" fill="#F4CE2C"/>
<path d="M269.578 217.687L192.197 173.059V164.638L269.578 209.265V217.687Z" fill="#4D3BFF"/>
<path d="M202.416 232.84L192.197 226.952V218.531L202.416 224.419V232.84Z" fill="#C33AFC"/>
<path d="M211.177 264.835L192.197 253.892V245.471L211.177 256.414V264.835Z" fill="#F4CE2C"/>
<path d="M338.957 241.261L315.59 227.785V219.363L338.957 232.84V241.261Z" fill="#A298E2"/>
<path d="M338.957 349.046L315.59 335.57V327.149L338.957 340.625V349.046Z" fill="#A298E2"/>
<path d="M187.822 116.645L164.455 103.169V94.748L187.822 108.224V116.645Z" fill="#A298E2"/>
<path d="M187.822 197.478L164.455 184.002V175.581L187.822 189.057V197.478Z" fill="#A298E2"/>
<path d="M187.822 264.835L164.455 251.371V242.95L187.822 256.414V264.835Z" fill="#A298E2"/>
<path d="M371.074 232.84L343.332 216.842V208.421L371.074 224.419V232.84Z" fill="#4D3BFF"/>
<path d="M379.921 332.204L343.332 311.151V302.73L379.921 323.783V332.204Z" fill="#C33AFC"/>
<path d="M396.721 368.496L343.332 338.091V329.67L396.721 360.074V368.496Z" fill="#FF8657"/>
<path d="M249.139 178.959L192.197 146.119V137.698L249.139 170.538V178.959Z" fill="#A298E2"/>
<path d="M241.836 134.332L192.197 105.703V97.2816L241.836 125.911V134.332Z" fill="#4D3BFF"/>
<path d="M273.965 260.624L192.197 213.476V205.055L273.965 252.216V260.624Z" fill="#A298E2"/>
<path d="M241.836 295.998L192.197 267.369V258.948L241.836 287.577V295.998Z" fill="#FF8657"/>
<path d="M338.957 187.38L315.59 173.904V165.483L338.957 178.959V187.38Z" fill="#A298E2"/>
<path d="M338.957 268.213L315.59 254.737V246.316L338.957 259.792V268.213Z" fill="#A298E2"/>
<path d="M338.957 362.51L315.59 349.046V340.625L338.957 354.089V362.51Z" fill="#A298E2"/>
<path d="M187.822 130.122L164.455 116.645V108.224L187.822 121.7V130.122Z" fill="#A298E2"/>
<path d="M187.822 170.538L164.455 157.062V148.641L187.822 162.117V170.538Z" fill="#A298E2"/>
<path d="M187.822 237.895L164.455 224.419V215.997L187.822 229.474V237.895Z" fill="#A298E2"/>
<path d="M392.971 205.079L343.332 176.425V168.004L392.971 196.658V205.079Z" fill="#F4CE2C"/>
<path d="M422.171 290.098L343.332 243.794V235.373L422.171 281.677V290.098Z" fill="#C33AFC"/>
<path d="M373.954 382.657L343.332 365.044V356.623L373.954 374.236V382.657Z" fill="#F4CE2C"/>
<path d="M291.487 149.485L192.197 92.2265V83.8054L291.487 141.064V149.485Z" fill="#C33AFC"/>
<path d="M271.036 326.304L192.197 280.833V272.412L271.036 317.883V326.304Z" fill="#A298E2"/>
<path d="M291.487 297.675L192.197 240.416V231.995L291.487 289.254V297.675Z" fill="#4D3BFF"/>
<path opacity="0.4" d="M367.3 611.998C395.615 611.998 418.569 598.758 418.569 582.426C418.569 566.094 395.615 552.854 367.3 552.854C338.985 552.854 316.031 566.094 316.031 582.426C316.031 598.758 338.985 611.998 367.3 611.998Z" fill="#D6D8E5"/>
<path d="M423.605 578.228V499.39L321.276 501.96L321.496 574.666C319.585 583.418 324.437 592.561 336.09 599.281C356.113 610.823 388.572 610.835 408.595 599.281C418.655 593.442 423.654 585.829 423.605 578.228Z" fill="#A6CE28"/>
<path d="M372.336 528.925C400.651 528.925 423.605 515.685 423.605 499.353C423.605 483.021 400.651 469.781 372.336 469.781C344.021 469.781 321.067 483.021 321.067 499.353C321.067 515.685 344.021 528.925 372.336 528.925Z" fill="#BCD64D"/>
<path d="M415.505 499.39C415.505 504.2 411.498 509.256 404.538 513.282C396.941 517.64 386.562 520.333 375.632 520.773C374.542 520.773 373.451 520.847 372.348 520.847C360.217 520.847 348.491 518.081 340.146 513.282C333.186 509.256 329.179 504.2 329.179 499.39C329.179 494.58 333.186 489.525 340.146 485.498C348.491 480.687 360.217 477.921 372.336 477.921C373.439 477.921 374.542 477.921 375.632 477.995C386.562 478.435 396.941 481.128 404.538 485.498C411.498 489.488 415.505 494.494 415.505 499.39Z" fill="#28221C"/>
<path opacity="0.07" d="M415.505 499.39C415.505 504.2 411.498 509.255 404.538 513.282C396.941 517.64 386.562 520.333 375.632 520.773C364.702 520.333 354.311 517.64 346.726 513.282C339.754 509.182 335.747 504.164 335.747 499.39C335.747 494.616 339.742 489.525 346.702 485.498C354.299 481.128 364.69 478.435 375.62 477.995C386.55 478.435 396.929 481.128 404.526 485.498C411.498 489.488 415.505 494.494 415.505 499.39Z" fill="white"/>
<path d="M416.106 535.878L405.225 529.586L399.931 532.646L405.225 535.706V537.714L415.432 543.589L415.126 545.474C416.608 546.698 421.889 556.49 421.889 556.49L422.257 556.147V581.521C422.257 588.179 418.348 585.927 416.682 584.96L405.225 578.35L399.931 581.398L405.225 584.446V586.453L416.682 593.063C417.839 593.756 419.073 594.315 420.358 594.727L419.672 597.91L425.602 594.568H425.688H425.774C428.225 593.124 429.266 589.611 429.266 585.67V559.048C429.315 547.799 420.676 538.974 416.106 535.878Z" fill="#8DA01F"/>
<path d="M411.388 596.16L399.931 589.55V581.398L411.388 588.008C413.055 588.962 416.964 591.227 416.964 584.556V558.056C416.964 551.79 411.29 547.457 410.322 546.771L399.931 540.774V532.646L410.812 538.938C415.395 542.034 423.973 550.872 423.973 562.12V588.644C423.973 595.805 420.701 601.521 411.388 596.16Z" fill="#99B524"/>
<path opacity="0.4" d="M50.6931 455.338C70.1901 455.338 85.9955 446.22 85.9955 434.971C85.9955 423.722 70.1901 414.604 50.6931 414.604C31.1961 414.604 15.3906 423.722 15.3906 434.971C15.3906 446.22 31.1961 455.338 50.6931 455.338Z" fill="#D6D8E5"/>
<path d="M55.7292 451.568C75.2262 451.568 91.0317 442.45 91.0317 431.201C91.0317 419.952 75.2262 410.834 55.7292 410.834C36.2322 410.834 20.4268 419.952 20.4268 431.201C20.4268 442.45 36.2322 451.568 55.7292 451.568Z" fill="#D6D8E5"/>
<path d="M8.46729 361.58L20.8189 432.609H90.9459L102.991 362.094L8.46729 361.58Z" fill="#D6D8E5"/>
<path d="M55.7289 387.982C81.858 387.982 103.04 375.767 103.04 360.699C103.04 345.631 81.858 333.416 55.7289 333.416C29.5998 333.416 8.41797 345.631 8.41797 360.699C8.41797 375.767 29.5998 387.982 55.7289 387.982Z" fill="#E4E6EF"/>
<path d="M55.729 381.96C44.1371 381.96 33.3295 379.414 25.2912 374.775C18.3924 370.809 14.4468 365.668 14.4468 360.699C14.4468 355.729 18.3924 350.588 25.2912 346.623C33.3172 341.984 44.1371 339.438 55.729 339.438C67.3208 339.438 78.1407 341.984 86.1668 346.623C93.0655 350.588 97.0111 355.729 97.0111 360.699C97.0111 365.668 93.1268 370.87 86.1668 374.775C78.1407 379.438 67.3943 381.96 55.729 381.96Z" fill="#28221C"/>
<path d="M76.0823 339.205C76.7519 330.027 75.2887 320.818 71.807 312.297C68.3253 303.776 62.9193 296.175 56.011 290.086L55.8762 289.951V290.208C48.9615 296.298 43.5507 303.903 40.0666 312.428C36.5826 320.954 35.1198 330.168 35.7927 339.352L8.72461 336.745C20.1449 379.72 56.011 376.023 56.011 376.023V375.937C58.7191 376.146 92.1712 377.871 103.114 336.647L76.0823 339.205Z" fill="#99B524"/>
<path d="M56.0108 376.023C56.0108 376.023 53.5601 342.559 8.61409 320.025C8.57733 320.025 -2.03424 375.619 56.0108 376.023Z" fill="#A6CE28"/>
<path d="M55.729 376.023C55.729 376.023 58.1797 342.559 103.126 320.025C103.126 320.025 113.774 375.619 55.729 376.023Z" fill="#A6CE28"/>
<defs>
<linearGradient id="paint0_linear" x1="124.913" y1="241.346" x2="477.692" y2="241.346" gradientUnits="userSpaceOnUse">
<stop offset="0.21" stop-color="white" stop-opacity="0"/>
<stop offset="1" stop-color="white" stop-opacity="0.2"/>
</linearGradient>
</defs>
</svg>
